<?xml version="1.0" encoding="UTF-8"?><svg id="a" xmlns="http://www.w3.org/2000/svg" width="192" height="192" viewBox="0 0 192 192"><defs><style>.b{fill:#2fa462;stroke-width:0px;}</style></defs><path class="b" d="M33.46,72.86v69.47c0,.8.26,1.46.77,1.98s1.17.77,1.98.77h119.58c.8,0,1.46-.26,1.98-.77s.77-1.17.77-1.98v-69.47H33.46ZM36.9,158.49c-4.46,0-8.38-1.69-11.76-5.08-3.38-3.38-5.08-7.31-5.08-11.76v-76.81c0-1.91.31-3.74.92-5.47.61-1.73,1.53-3.34,2.76-4.8l12.54-15.17c1.47-1.91,3.3-3.37,5.5-4.37,2.2-1,4.52-1.5,6.98-1.5h94.33c2.45,0,4.79.5,7.02,1.5,2.23,1,4.07,2.46,5.54,4.37l12.63,15.34c1.23,1.47,2.14,3.08,2.76,4.84.61,1.76.92,3.6.92,5.52v76.55c0,4.46-1.69,8.38-5.08,11.76-3.38,3.38-7.31,5.08-11.76,5.08H36.9ZM36.95,59.46h118.02l-9.74-11.6c-.29-.29-.61-.52-.99-.69-.37-.17-.76-.26-1.16-.26H48.84c-.4,0-.79.09-1.16.26-.37.17-.7.4-.99.69l-9.74,11.6ZM121.17,97.7h-50.34c-3.7,0-6.7-3-6.7-6.7h0c0-3.7,3-6.7,6.7-6.7h50.34c3.7,0,6.7,3,6.7,6.7h0c0,3.7-3,6.7-6.7,6.7Z"/></svg>